<svg width="219" height="77" viewBox="0 0 219 77" fill="none" xmlns="http://www.w3.org/2000/svg">
<path d="M116.988 26.2891C116.874 26.5007 116.679 26.8669 116.402 27.3877C116.142 27.8923 115.825 28.5107 115.45 29.2432C115.076 29.9756 114.661 30.7975 114.205 31.709C113.749 32.6042 113.277 33.5482 112.789 34.541C113.521 34.4922 114.181 34.4434 114.767 34.3945C115.369 34.3294 115.8 34.2969 116.061 34.2969C116.142 34.2969 116.199 34.3294 116.231 34.3945C116.28 34.4434 116.305 34.5085 116.305 34.5898C116.305 34.7201 116.264 34.8584 116.183 35.0049C116.118 35.1514 116.061 35.2653 116.012 35.3467C115.816 35.6396 115.605 35.9489 115.377 36.2744C115.165 36.5837 114.938 36.8766 114.693 37.1533C114.449 37.43 114.197 37.666 113.937 37.8613C113.676 38.0566 113.399 38.1706 113.106 38.2031C112.586 38.3008 111.886 38.3008 111.007 38.2031C110.6 39.0332 110.201 39.8633 109.811 40.6934C109.436 41.5072 109.078 42.2884 108.736 43.0371C108.411 43.7858 108.11 44.4938 107.833 45.1611C107.573 45.8122 107.345 46.39 107.149 46.8945C106.694 48.1641 106.303 49.2464 105.978 50.1416C105.652 51.0205 105.489 51.7936 105.489 52.4609C105.489 52.8841 105.603 53.234 105.831 53.5107C106.075 53.7712 106.482 53.9014 107.052 53.9014C107.426 53.9014 107.882 53.6898 108.419 53.2666C108.972 52.8271 109.542 52.2575 110.128 51.5576C110.714 50.8577 111.292 50.0684 111.861 49.1895C112.431 48.3105 112.927 47.4316 113.351 46.5527C113.481 46.2923 113.627 46.1621 113.79 46.1621C113.904 46.1621 114.002 46.1947 114.083 46.2598C114.164 46.3249 114.205 46.4225 114.205 46.5527C114.205 46.6504 114.173 46.7643 114.107 46.8945C113.521 48.1803 112.879 49.3929 112.179 50.5322C111.479 51.6553 110.755 52.64 110.006 53.4863C109.257 54.3164 108.492 54.9756 107.711 55.4639C106.946 55.9521 106.189 56.1963 105.44 56.1963C104.382 56.1963 103.626 55.9033 103.17 55.3174C102.698 54.7314 102.462 53.877 102.462 52.7539C102.462 51.9401 102.551 51.0612 102.73 50.1172C102.893 49.1732 103.162 48.1071 103.536 46.9189C103.91 45.7308 104.407 44.388 105.025 42.8906C105.644 41.3932 106.401 39.6761 107.296 37.7393C106.922 37.6579 106.563 37.5846 106.222 37.5195C105.88 37.4544 105.571 37.3812 105.294 37.2998C105.099 37.251 104.944 37.2184 104.83 37.2021C104.716 37.1859 104.659 37.137 104.659 37.0557C104.659 36.8766 104.708 36.7139 104.806 36.5674C104.92 36.4209 105.066 36.25 105.245 36.0547C105.326 35.9245 105.424 35.7699 105.538 35.5908C105.668 35.4118 105.823 35.2979 106.002 35.249C106.132 35.2165 106.433 35.1676 106.905 35.1025C107.394 35.0374 107.996 34.9561 108.712 34.8584C109.396 33.4424 110.136 31.9368 110.934 30.3418C111.731 28.7305 112.618 26.9808 113.595 25.0928C113.774 24.751 113.961 24.4255 114.156 24.1162C114.352 23.7907 114.547 23.5059 114.742 23.2617C114.938 23.0176 115.125 22.8223 115.304 22.6758C115.499 22.5293 115.678 22.4561 115.841 22.4561C116.036 22.4561 116.223 22.5537 116.402 22.749C116.581 22.9281 116.728 23.1559 116.842 23.4326C116.972 23.7093 117.07 24.0023 117.135 24.3115C117.216 24.6045 117.257 24.8649 117.257 25.0928C117.257 25.402 117.232 25.6462 117.184 25.8252C117.135 25.988 117.07 26.1426 116.988 26.2891ZM127.12 30C127.12 30.3581 127.014 30.7894 126.803 31.2939C126.591 31.7822 126.314 32.2542 125.973 32.71C125.647 33.1494 125.281 33.5238 124.874 33.833C124.483 34.1423 124.101 34.2969 123.727 34.2969C123.222 34.2969 122.791 34.1423 122.433 33.833C122.091 33.5238 121.92 33.1982 121.92 32.8564C121.92 32.71 121.969 32.4902 122.066 32.1973C122.18 31.9043 122.319 31.5869 122.481 31.2451C122.66 30.887 122.864 30.529 123.092 30.1709C123.336 29.7965 123.588 29.4629 123.849 29.1699C124.125 28.8607 124.394 28.6165 124.654 28.4375C124.931 28.2422 125.2 28.1445 125.46 28.1445C126.111 28.1445 126.55 28.2992 126.778 28.6084C127.006 28.9176 127.12 29.3815 127.12 30ZM123.971 46.8945C123.401 48.1803 122.774 49.3604 122.091 50.4346C121.424 51.4925 120.732 52.404 120.016 53.1689C119.299 53.9176 118.559 54.5036 117.794 54.9268C117.045 55.3499 116.305 55.5615 115.572 55.5615C115.019 55.5615 114.547 55.4395 114.156 55.1953C113.766 54.9674 113.448 54.6501 113.204 54.2432C112.944 53.8363 112.757 53.3643 112.643 52.8271C112.529 52.2738 112.472 51.6797 112.472 51.0449C112.472 49.8568 112.634 48.6849 112.96 47.5293C113.285 46.3574 113.701 45.2181 114.205 44.1113C114.726 42.9883 115.312 41.8896 115.963 40.8154C116.614 39.7412 117.265 38.6995 117.916 37.6904C118.062 37.4463 118.242 37.2266 118.453 37.0312C118.665 36.8359 118.868 36.7383 119.063 36.7383C119.34 36.7383 119.617 36.7871 119.894 36.8848C120.17 36.9824 120.423 37.1126 120.65 37.2754C120.878 37.4219 121.057 37.5928 121.188 37.7881C121.334 37.9671 121.407 38.1543 121.407 38.3496C121.407 38.5775 121.269 38.9518 120.992 39.4727C120.715 39.9935 120.366 40.6201 119.942 41.3525C119.519 42.0687 119.063 42.8662 118.575 43.7451C118.103 44.624 117.656 45.5355 117.232 46.4795C116.809 47.4235 116.459 48.3757 116.183 49.3359C115.906 50.2799 115.768 51.1833 115.768 52.0459C115.768 52.2575 115.776 52.4691 115.792 52.6807C115.825 52.876 115.882 53.055 115.963 53.2178C116.061 53.3643 116.199 53.4863 116.378 53.584C116.573 53.6654 116.834 53.7061 117.159 53.7061C117.501 53.7061 117.924 53.5026 118.429 53.0957C118.95 52.6888 119.487 52.1517 120.04 51.4844C120.61 50.8008 121.171 50.0358 121.725 49.1895C122.294 48.3268 122.791 47.4479 123.214 46.5527C123.344 46.2923 123.491 46.1621 123.653 46.1621C123.767 46.1621 123.865 46.1947 123.946 46.2598C124.028 46.3249 124.068 46.4225 124.068 46.5527C124.068 46.6504 124.036 46.7643 123.971 46.8945ZM141.671 46.8945C141.101 48.1803 140.475 49.3929 139.791 50.5322C139.124 51.6553 138.424 52.64 137.691 53.4863C136.959 54.3164 136.21 54.9756 135.445 55.4639C134.68 55.9521 133.924 56.1963 133.175 56.1963C132.654 56.1963 132.198 56.0905 131.808 55.8789C131.433 55.6673 131.116 55.3743 130.855 55C130.611 54.6257 130.424 54.1781 130.294 53.6572C130.18 53.1364 130.123 52.5667 130.123 51.9482C130.123 51.1019 130.286 50.1742 130.611 49.165C130.953 48.1396 131.376 47.098 131.881 46.04C132.402 44.9821 132.971 43.9404 133.59 42.915C134.225 41.8896 134.835 40.9375 135.421 40.0586C135.014 40.3353 134.542 40.6852 134.005 41.1084C133.484 41.5316 132.931 41.9954 132.345 42.5C131.775 43.0046 131.189 43.5417 130.587 44.1113C129.985 44.6647 129.415 45.2181 128.878 45.7715C128.341 46.3086 127.844 46.8294 127.389 47.334C126.933 47.8385 126.559 48.2943 126.266 48.7012C125.37 49.9219 124.638 51.0205 124.068 51.9971C123.499 52.9736 123.051 53.7712 122.726 54.3896C122.498 54.8454 122.27 55.1546 122.042 55.3174C121.814 55.4801 121.578 55.5615 121.334 55.5615C121.122 55.5615 120.903 55.4964 120.675 55.3662C120.447 55.2523 120.333 55.0326 120.333 54.707C120.333 54.5117 120.423 54.113 120.602 53.5107C120.781 52.9085 121.025 52.1924 121.334 51.3623C121.627 50.516 121.969 49.5882 122.359 48.5791C122.734 47.57 123.132 46.5527 123.556 45.5273C123.963 44.4857 124.369 43.4766 124.776 42.5C125.183 41.5072 125.558 40.6201 125.899 39.8389C126.241 39.0576 126.534 38.4147 126.778 37.9102C127.022 37.3893 127.185 37.0882 127.267 37.0068C127.478 36.7952 127.82 36.7546 128.292 36.8848C128.78 37.015 129.26 37.2184 129.732 37.4951C129.96 37.6416 130.131 37.7881 130.245 37.9346C130.375 38.0811 130.473 38.2194 130.538 38.3496C130.571 38.431 130.579 38.5042 130.562 38.5693C130.546 38.6344 130.522 38.6914 130.489 38.7402C130.44 38.7891 130.253 39.082 129.928 39.6191C129.602 40.14 129.203 40.8154 128.731 41.6455C128.259 42.4593 127.739 43.3789 127.169 44.4043C126.599 45.4297 126.054 46.4632 125.533 47.5049C126.314 46.4307 127.071 45.4704 127.804 44.624C128.536 43.7777 129.187 43.0452 129.757 42.4268C130.408 41.7269 131.035 41.1003 131.637 40.5469C133.378 39.0169 134.729 37.8776 135.689 37.1289C136.666 36.3802 137.415 36.0059 137.936 36.0059C138.147 36.0059 138.367 36.0791 138.595 36.2256C138.839 36.3558 139.059 36.5348 139.254 36.7627C139.449 36.9906 139.612 37.251 139.742 37.5439C139.872 37.8369 139.938 38.138 139.938 38.4473C139.938 38.7565 139.791 39.1797 139.498 39.7168C139.205 40.2376 138.839 40.8561 138.399 41.5723C137.96 42.2721 137.48 43.0534 136.959 43.916C136.438 44.7624 135.958 45.6576 135.519 46.6016C135.079 47.5456 134.713 48.5221 134.42 49.5312C134.127 50.5404 133.98 51.5495 133.98 52.5586C133.98 53.0306 134.046 53.4375 134.176 53.7793C134.322 54.1211 134.558 54.292 134.884 54.292C135.226 54.292 135.649 54.056 136.153 53.584C136.674 53.112 137.211 52.5016 137.765 51.7529C138.334 51.0042 138.896 50.1742 139.449 49.2627C140.019 48.335 140.515 47.4316 140.938 46.5527C141.069 46.2923 141.215 46.1621 141.378 46.1621C141.459 46.1621 141.541 46.1947 141.622 46.2598C141.72 46.3086 141.769 46.4062 141.769 46.5527C141.769 46.6504 141.736 46.7643 141.671 46.8945ZM156.344 41.1572C156.344 41.4014 156.311 41.6781 156.246 41.9873C156.197 42.2965 156.108 42.6628 155.978 43.0859C155.847 43.5091 155.66 44.0137 155.416 44.5996C155.188 45.1855 154.903 45.8854 154.562 46.6992C153.959 48.099 153.325 49.5231 152.657 50.9717C152.006 52.404 151.339 53.8118 150.655 55.1953C149.972 56.5951 149.288 57.9297 148.604 59.1992C147.937 60.485 147.286 61.665 146.651 62.7393C146.033 63.8135 145.455 64.7575 144.918 65.5713C144.381 66.3851 143.909 67.0117 143.502 67.4512C143.258 67.7279 142.965 67.9313 142.623 68.0615C142.298 68.1917 141.956 68.2568 141.598 68.2568C141.207 68.2568 140.849 68.1917 140.523 68.0615C140.182 67.9476 139.889 67.7441 139.645 67.4512C139.4 67.1582 139.213 66.7676 139.083 66.2793C138.937 65.8073 138.863 65.2132 138.863 64.4971C138.863 63.7972 138.993 63.016 139.254 62.1533C139.498 61.2907 139.962 60.3548 140.646 59.3457C140.45 60.599 140.353 61.5674 140.353 62.251C140.353 62.9997 140.442 63.5124 140.621 63.7891C140.784 64.0658 140.979 64.2041 141.207 64.2041C141.354 64.2041 141.524 64.1309 141.72 63.9844C141.931 63.8379 142.184 63.5612 142.477 63.1543C142.786 62.7474 143.136 62.194 143.526 61.4941C143.933 60.8105 144.405 59.9154 144.942 58.8086C145.333 58.0436 145.797 57.124 146.334 56.0498C146.79 55.1221 147.327 53.9909 147.945 52.6562C148.58 51.3053 149.312 49.7347 150.143 47.9443C149.589 48.7419 148.979 49.5557 148.312 50.3857C147.644 51.2158 146.936 51.9727 146.188 52.6562C145.455 53.3236 144.698 53.877 143.917 54.3164C143.152 54.7396 142.395 54.9512 141.646 54.9512C140.914 54.9512 140.32 54.7233 139.864 54.2676C139.392 53.8118 139.156 53.055 139.156 51.9971C139.156 50.8089 139.409 49.6208 139.913 48.4326C140.401 47.2282 141.061 46.0563 141.891 44.917C142.721 43.7777 143.665 42.6953 144.723 41.6699C145.797 40.6445 146.904 39.7168 148.043 38.8867C149.182 38.0404 150.313 37.3161 151.437 36.7139C152.56 36.0954 153.585 35.6396 154.513 35.3467C154.61 35.3141 154.708 35.2897 154.806 35.2734C154.903 35.2572 155.001 35.249 155.099 35.249C155.245 35.249 155.367 35.2816 155.465 35.3467C155.562 35.4118 155.611 35.5094 155.611 35.6396C155.611 36.0954 155.457 36.4535 155.147 36.7139C154.838 36.9743 154.431 37.2184 153.927 37.4463C153.422 37.6579 152.853 37.902 152.218 38.1787C151.599 38.4554 150.965 38.8298 150.313 39.3018C149.614 39.8226 148.914 40.5062 148.214 41.3525C147.514 42.1826 146.887 43.0778 146.334 44.0381C145.781 44.9821 145.325 45.9505 144.967 46.9434C144.625 47.9199 144.454 48.8232 144.454 49.6533C144.454 50.0602 144.519 50.3532 144.649 50.5322C144.78 50.7113 144.951 50.8008 145.162 50.8008C145.439 50.8008 145.797 50.6299 146.236 50.2881C146.676 49.93 147.172 49.4255 147.726 48.7744C148.295 48.1234 148.906 47.3503 149.557 46.4551C150.208 45.5599 150.875 44.5589 151.559 43.4521C151.965 42.8011 152.332 42.1908 152.657 41.6211C152.983 41.0514 153.268 40.5632 153.512 40.1562C153.772 39.7331 153.992 39.3994 154.171 39.1553C154.35 38.9111 154.496 38.7891 154.61 38.7891C154.724 38.7891 154.879 38.8623 155.074 39.0088C155.286 39.139 155.481 39.318 155.66 39.5459C155.839 39.7575 155.994 40.0098 156.124 40.3027C156.271 40.5794 156.344 40.8643 156.344 41.1572ZM171.627 26.2891C171.513 26.5007 171.318 26.8669 171.041 27.3877C170.781 27.8923 170.463 28.5107 170.089 29.2432C169.715 29.9756 169.299 30.7975 168.844 31.709C168.388 32.6042 167.916 33.5482 167.428 34.541C168.16 34.4922 168.819 34.4434 169.405 34.3945C170.007 34.3294 170.439 34.2969 170.699 34.2969C170.781 34.2969 170.838 34.3294 170.87 34.3945C170.919 34.4434 170.943 34.5085 170.943 34.5898C170.943 34.7201 170.903 34.8584 170.821 35.0049C170.756 35.1514 170.699 35.2653 170.65 35.3467C170.455 35.6396 170.243 35.9489 170.016 36.2744C169.804 36.5837 169.576 36.8766 169.332 37.1533C169.088 37.43 168.836 37.666 168.575 37.8613C168.315 38.0566 168.038 38.1706 167.745 38.2031C167.224 38.3008 166.524 38.3008 165.646 38.2031C165.239 39.0332 164.84 39.8633 164.449 40.6934C164.075 41.5072 163.717 42.2884 163.375 43.0371C163.049 43.7858 162.748 44.4938 162.472 45.1611C162.211 45.8122 161.983 46.39 161.788 46.8945C161.332 48.1641 160.942 49.2464 160.616 50.1416C160.291 51.0205 160.128 51.7936 160.128 52.4609C160.128 52.8841 160.242 53.234 160.47 53.5107C160.714 53.7712 161.121 53.9014 161.69 53.9014C162.065 53.9014 162.521 53.6898 163.058 53.2666C163.611 52.8271 164.181 52.2575 164.767 51.5576C165.353 50.8577 165.93 50.0684 166.5 49.1895C167.07 48.3105 167.566 47.4316 167.989 46.5527C168.119 46.2923 168.266 46.1621 168.429 46.1621C168.543 46.1621 168.64 46.1947 168.722 46.2598C168.803 46.3249 168.844 46.4225 168.844 46.5527C168.844 46.6504 168.811 46.7643 168.746 46.8945C168.16 48.1803 167.517 49.3929 166.817 50.5322C166.118 51.6553 165.393 52.64 164.645 53.4863C163.896 54.3164 163.131 54.9756 162.35 55.4639C161.585 55.9521 160.828 56.1963 160.079 56.1963C159.021 56.1963 158.264 55.9033 157.809 55.3174C157.337 54.7314 157.101 53.877 157.101 52.7539C157.101 51.9401 157.19 51.0612 157.369 50.1172C157.532 49.1732 157.8 48.1071 158.175 46.9189C158.549 45.7308 159.046 44.388 159.664 42.8906C160.283 41.3932 161.039 39.6761 161.935 37.7393C161.56 37.6579 161.202 37.5846 160.86 37.5195C160.519 37.4544 160.209 37.3812 159.933 37.2998C159.737 37.251 159.583 37.2184 159.469 37.2021C159.355 37.1859 159.298 37.137 159.298 37.0557C159.298 36.8766 159.347 36.7139 159.444 36.5674C159.558 36.4209 159.705 36.25 159.884 36.0547C159.965 35.9245 160.063 35.7699 160.177 35.5908C160.307 35.4118 160.462 35.2979 160.641 35.249C160.771 35.2165 161.072 35.1676 161.544 35.1025C162.032 35.0374 162.634 34.9561 163.351 34.8584C164.034 33.4424 164.775 31.9368 165.572 30.3418C166.37 28.7305 167.257 26.9808 168.233 25.0928C168.412 24.751 168.6 24.4255 168.795 24.1162C168.99 23.7907 169.186 23.5059 169.381 23.2617C169.576 23.0176 169.763 22.8223 169.942 22.6758C170.138 22.5293 170.317 22.4561 170.479 22.4561C170.675 22.4561 170.862 22.5537 171.041 22.749C171.22 22.9281 171.367 23.1559 171.48 23.4326C171.611 23.7093 171.708 24.0023 171.773 24.3115C171.855 24.6045 171.896 24.8649 171.896 25.0928C171.896 25.402 171.871 25.6462 171.822 25.8252C171.773 25.988 171.708 26.1426 171.627 26.2891ZM184.151 46.4551C183.956 46.9434 183.688 47.4805 183.346 48.0664C183.02 48.6523 182.621 49.1976 182.149 49.7021C181.694 50.1904 181.173 50.6055 180.587 50.9473C180.001 51.2891 179.342 51.46 178.609 51.46C178.398 51.46 178.194 51.4437 177.999 51.4111C177.82 51.3786 177.641 51.3216 177.462 51.2402C177.006 51.9238 176.518 52.5667 175.997 53.1689C175.493 53.7712 174.947 54.3001 174.361 54.7559C173.775 55.1953 173.157 55.5452 172.506 55.8057C171.871 56.0661 171.204 56.1963 170.504 56.1963C169.853 56.1963 169.275 56.0824 168.771 55.8545C168.282 55.6266 167.867 55.3092 167.525 54.9023C167.184 54.4954 166.931 54.0153 166.769 53.4619C166.59 52.8923 166.5 52.2738 166.5 51.6064C166.5 50.9717 166.59 50.2148 166.769 49.3359C166.931 48.457 167.216 47.5293 167.623 46.5527C168.014 45.5762 168.518 44.5833 169.137 43.5742C169.771 42.5651 170.545 41.613 171.456 40.7178C172.368 39.8063 173.425 38.9925 174.63 38.2764C175.851 37.5439 177.242 36.9661 178.805 36.543H179C179.212 36.543 179.407 36.5837 179.586 36.665C179.765 36.7464 179.92 36.8522 180.05 36.9824C180.18 37.1126 180.278 37.251 180.343 37.3975C180.424 37.5439 180.465 37.6742 180.465 37.7881C180.465 38.0485 180.392 38.2357 180.245 38.3496C180.099 38.4635 179.887 38.5449 179.61 38.5938C179.464 38.6263 179.212 38.6751 178.854 38.7402C178.512 38.7891 178.08 38.9274 177.56 39.1553C177.055 39.3669 176.485 39.7087 175.851 40.1807C175.216 40.6364 174.549 41.2793 173.849 42.1094C173.377 42.6628 172.921 43.3301 172.481 44.1113C172.058 44.8763 171.684 45.6738 171.358 46.5039C171.033 47.334 170.764 48.1641 170.553 48.9941C170.357 49.8079 170.26 50.5404 170.26 51.1914C170.26 52.054 170.463 52.7295 170.87 53.2178C171.277 53.7061 171.757 53.9502 172.311 53.9502C172.913 53.9502 173.556 53.6328 174.239 52.998C174.939 52.347 175.631 51.4844 176.314 50.4102C175.989 50.0033 175.72 49.4987 175.509 48.8965C175.297 48.2943 175.191 47.5781 175.191 46.748C175.191 45.8366 175.305 44.9251 175.533 44.0137C175.777 43.1022 176.095 42.2803 176.485 41.5479C176.876 40.8154 177.315 40.2214 177.804 39.7656C178.308 39.2936 178.821 39.0576 179.342 39.0576C179.846 39.0576 180.221 39.2855 180.465 39.7412C180.725 40.1807 180.855 40.7666 180.855 41.499C180.855 41.9873 180.79 42.5732 180.66 43.2568C180.53 43.9242 180.343 44.6484 180.099 45.4297C179.854 46.2109 179.553 47.0166 179.195 47.8467C178.854 48.6768 178.455 49.4906 177.999 50.2881C178.227 50.402 178.495 50.459 178.805 50.459C179.374 50.459 179.879 50.3288 180.318 50.0684C180.774 49.8079 181.181 49.4743 181.539 49.0674C181.897 48.6605 182.223 48.2048 182.516 47.7002C182.809 47.1956 183.085 46.6992 183.346 46.2109C183.508 45.8691 183.679 45.6982 183.858 45.6982C183.956 45.6982 184.046 45.7308 184.127 45.7959C184.208 45.861 184.249 45.9424 184.249 46.04C184.249 46.1865 184.216 46.3249 184.151 46.4551ZM176.607 47.4072C176.607 47.7979 176.632 48.1559 176.681 48.4814C176.729 48.807 176.819 49.0837 176.949 49.3115C177.275 48.7419 177.576 48.1641 177.853 47.5781C178.129 46.9759 178.398 46.3493 178.658 45.6982C178.886 45.096 179.057 44.5996 179.171 44.209C179.285 43.8021 179.342 43.4847 179.342 43.2568C179.342 42.7197 179.163 42.4512 178.805 42.4512C178.561 42.4512 178.308 42.5814 178.048 42.8418C177.804 43.1022 177.568 43.4603 177.34 43.916C177.128 44.3717 176.949 44.9007 176.803 45.5029C176.673 46.0889 176.607 46.7236 176.607 47.4072ZM201.632 46.8945C201.062 48.1803 200.436 49.3929 199.752 50.5322C199.085 51.6553 198.385 52.64 197.652 53.4863C196.92 54.3164 196.171 54.9756 195.406 55.4639C194.641 55.9521 193.884 56.1963 193.136 56.1963C192.615 56.1963 192.159 56.0905 191.769 55.8789C191.394 55.6673 191.077 55.3743 190.816 55C190.572 54.6257 190.385 54.1781 190.255 53.6572C190.141 53.1364 190.084 52.5667 190.084 51.9482C190.084 51.1019 190.247 50.1742 190.572 49.165C190.914 48.1396 191.337 47.098 191.842 46.04C192.363 44.9821 192.932 43.9404 193.551 42.915C194.186 41.8896 194.796 40.9375 195.382 40.0586C194.975 40.3353 194.503 40.6852 193.966 41.1084C193.445 41.5316 192.892 41.9954 192.306 42.5C191.736 43.0046 191.15 43.5417 190.548 44.1113C189.946 44.6647 189.376 45.2181 188.839 45.7715C188.302 46.3086 187.805 46.8294 187.35 47.334C186.894 47.8385 186.52 48.2943 186.227 48.7012C185.331 49.9219 184.599 51.0205 184.029 51.9971C183.46 52.9736 183.012 53.7712 182.687 54.3896C182.459 54.8454 182.231 55.1546 182.003 55.3174C181.775 55.4801 181.539 55.5615 181.295 55.5615C181.083 55.5615 180.864 55.4964 180.636 55.3662C180.408 55.2523 180.294 55.0326 180.294 54.707C180.294 54.5117 180.383 54.113 180.562 53.5107C180.742 52.9085 180.986 52.1924 181.295 51.3623C181.588 50.516 181.93 49.5882 182.32 48.5791C182.695 47.57 183.093 46.5527 183.517 45.5273C183.924 44.4857 184.33 43.4766 184.737 42.5C185.144 41.5072 185.519 40.6201 185.86 39.8389C186.202 39.0576 186.495 38.4147 186.739 37.9102C186.983 37.3893 187.146 37.0882 187.228 37.0068C187.439 36.7952 187.781 36.7546 188.253 36.8848C188.741 37.015 189.221 37.2184 189.693 37.4951C189.921 37.6416 190.092 37.7881 190.206 37.9346C190.336 38.0811 190.434 38.2194 190.499 38.3496C190.532 38.431 190.54 38.5042 190.523 38.5693C190.507 38.6344 190.483 38.6914 190.45 38.7402C190.401 38.7891 190.214 39.082 189.889 39.6191C189.563 40.14 189.164 40.8154 188.692 41.6455C188.22 42.4593 187.7 43.3789 187.13 44.4043C186.56 45.4297 186.015 46.4632 185.494 47.5049C186.275 46.4307 187.032 45.4704 187.765 44.624C188.497 43.7777 189.148 43.0452 189.718 42.4268C190.369 41.7269 190.995 41.1003 191.598 40.5469C193.339 39.0169 194.69 37.8776 195.65 37.1289C196.627 36.3802 197.376 36.0059 197.896 36.0059C198.108 36.0059 198.328 36.0791 198.556 36.2256C198.8 36.3558 199.02 36.5348 199.215 36.7627C199.41 36.9906 199.573 37.251 199.703 37.5439C199.833 37.8369 199.898 38.138 199.898 38.4473C199.898 38.7565 199.752 39.1797 199.459 39.7168C199.166 40.2376 198.8 40.8561 198.36 41.5723C197.921 42.2721 197.441 43.0534 196.92 43.916C196.399 44.7624 195.919 45.6576 195.479 46.6016C195.04 47.5456 194.674 48.5221 194.381 49.5312C194.088 50.5404 193.941 51.5495 193.941 52.5586C193.941 53.0306 194.007 53.4375 194.137 53.7793C194.283 54.1211 194.519 54.292 194.845 54.292C195.187 54.292 195.61 54.056 196.114 53.584C196.635 53.112 197.172 52.5016 197.726 51.7529C198.295 51.0042 198.857 50.1742 199.41 49.2627C199.98 48.335 200.476 47.4316 200.899 46.5527C201.03 46.2923 201.176 46.1621 201.339 46.1621C201.42 46.1621 201.502 46.1947 201.583 46.2598C201.681 46.3086 201.729 46.4062 201.729 46.5527C201.729 46.6504 201.697 46.7643 201.632 46.8945ZM216.305 41.1572C216.305 41.4014 216.272 41.6781 216.207 41.9873C216.158 42.2965 216.069 42.6628 215.938 43.0859C215.808 43.5091 215.621 44.0137 215.377 44.5996C215.149 45.1855 214.864 45.8854 214.522 46.6992C213.92 48.099 213.285 49.5231 212.618 50.9717C211.967 52.404 211.3 53.8118 210.616 55.1953C209.933 56.5951 209.249 57.9297 208.565 59.1992C207.898 60.485 207.247 61.665 206.612 62.7393C205.994 63.8135 205.416 64.7575 204.879 65.5713C204.342 66.3851 203.87 67.0117 203.463 67.4512C203.219 67.7279 202.926 67.9313 202.584 68.0615C202.258 68.1917 201.917 68.2568 201.559 68.2568C201.168 68.2568 200.81 68.1917 200.484 68.0615C200.143 67.9476 199.85 67.7441 199.605 67.4512C199.361 67.1582 199.174 66.7676 199.044 66.2793C198.897 65.8073 198.824 65.2132 198.824 64.4971C198.824 63.7972 198.954 63.016 199.215 62.1533C199.459 61.2907 199.923 60.3548 200.606 59.3457C200.411 60.599 200.313 61.5674 200.313 62.251C200.313 62.9997 200.403 63.5124 200.582 63.7891C200.745 64.0658 200.94 64.2041 201.168 64.2041C201.314 64.2041 201.485 64.1309 201.681 63.9844C201.892 63.8379 202.145 63.5612 202.438 63.1543C202.747 62.7474 203.097 62.194 203.487 61.4941C203.894 60.8105 204.366 59.9154 204.903 58.8086C205.294 58.0436 205.758 57.124 206.295 56.0498C206.751 55.1221 207.288 53.9909 207.906 52.6562C208.541 51.3053 209.273 49.7347 210.104 47.9443C209.55 48.7419 208.94 49.5557 208.272 50.3857C207.605 51.2158 206.897 51.9727 206.148 52.6562C205.416 53.3236 204.659 53.877 203.878 54.3164C203.113 54.7396 202.356 54.9512 201.607 54.9512C200.875 54.9512 200.281 54.7233 199.825 54.2676C199.353 53.8118 199.117 53.055 199.117 51.9971C199.117 50.8089 199.369 49.6208 199.874 48.4326C200.362 47.2282 201.021 46.0563 201.852 44.917C202.682 43.7777 203.626 42.6953 204.684 41.6699C205.758 40.6445 206.865 39.7168 208.004 38.8867C209.143 38.0404 210.274 37.3161 211.397 36.7139C212.521 36.0954 213.546 35.6396 214.474 35.3467C214.571 35.3141 214.669 35.2897 214.767 35.2734C214.864 35.2572 214.962 35.249 215.06 35.249C215.206 35.249 215.328 35.2816 215.426 35.3467C215.523 35.4118 215.572 35.5094 215.572 35.6396C215.572 36.0954 215.418 36.4535 215.108 36.7139C214.799 36.9743 214.392 37.2184 213.888 37.4463C213.383 37.6579 212.813 37.902 212.179 38.1787C211.56 38.4554 210.925 38.8298 210.274 39.3018C209.575 39.8226 208.875 40.5062 208.175 41.3525C207.475 42.1826 206.848 43.0778 206.295 44.0381C205.742 44.9821 205.286 45.9505 204.928 46.9434C204.586 47.9199 204.415 48.8232 204.415 49.6533C204.415 50.0602 204.48 50.3532 204.61 50.5322C204.741 50.7113 204.911 50.8008 205.123 50.8008C205.4 50.8008 205.758 50.6299 206.197 50.2881C206.637 49.93 207.133 49.4255 207.687 48.7744C208.256 48.1234 208.867 47.3503 209.518 46.4551C210.169 45.5599 210.836 44.5589 211.52 43.4521C211.926 42.8011 212.293 42.1908 212.618 41.6211C212.944 41.0514 213.229 40.5632 213.473 40.1562C213.733 39.7331 213.953 39.3994 214.132 39.1553C214.311 38.9111 214.457 38.7891 214.571 38.7891C214.685 38.7891 214.84 38.8623 215.035 39.0088C215.247 39.139 215.442 39.318 215.621 39.5459C215.8 39.7575 215.955 40.0098 216.085 40.3027C216.231 40.5794 216.305 40.8643 216.305 41.1572Z" fill="#182B54"/>
<path d="M1 21.5V20L2.5 18.5L48 1H49.5H52H53.5L97 18L98 18.5L98.5 19.5V21L98 22.5L97 23.5L80.5 28.5H79L53.5 21.5H52.5L51.5 23L52 24.5L65 33L65.5 34V35.5L64.5 36.5L51.5 41.5H50.5L8 25L3 23L1.5 22L1 21.5Z" fill="#182B54" stroke="#182B54"/>
<path d="M19 35L18.5 35.5V52.5L24.5 56.5L29 59L35 61L40 62.5L46 63.5H50H53.5L58 63L62 62.5L65.5 61.5L68.5 60V59V58V57.5L69 57L69.5 56.5L70 55.5V40L69.5 39.5H68.5L51.5 46H50.5L20.5 35H19Z" fill="#182B54" stroke="#182B54"/>
<path d="M68.5 29.5V31L73 33.5V57L71.5 58V61L72.5 63V64L70 73V74.5L73.5 76H76L78 75V74.5V73L76.5 64V63L78 61V59V58.5L76 57V56.5V31.5L75 31L70 29H69L68.5 29.5Z" fill="#182B54" stroke="#182B54"/>
<path d="M82.5 33L79 35V56H80.5L84.5 53V34L83.5 33H82.5Z" fill="#182B54" stroke="#182B54"/>
</svg>
